<svg xmlns="http://www.w3.org/2000/svg" version="1.1" xmlns:xlink="http://www.w3.org/1999/xlink" xmlns:svgjs="http://svgjs.com/svgjs" width="512" height="512" x="0" y="0" viewBox="0 0 64 64" style="enable-background:new 0 0 512 512" xml:space="preserve" class=""><g><g id="Icons"><g><g><g><path d="m6 54h52c1.105 0 2-.895 2-2v-36c0-1.105-.895-2-2-2h-52c-1.105 0-2 .895-2 2v36c0 1.105.895 2 2 2z" fill="#0a5078" data-original="#0a5078"></path></g><g><path d="m9 50h46c.552 0 1-.448 1-1v-30c0-.552-.448-1-1-1h-46c-.552 0-1 .448-1 1v30c0 .552.448 1 1 1z" fill="#00a0c8" data-original="#00a0c8" class=""></path></g><g><path d="m28 54h8v4h-8z" fill="#0a5078" transform="matrix(-1 0 0 -1 64 112)" data-original="#0a5078"></path></g><g><path d="m20 60h24c0-1.105-.895-2-2-2h-20c-1.105 0-2 .895-2 2z" fill="#0a5078" data-original="#0a5078"></path></g><g><path d="m28 54h8v1h-8z" fill="#00325a" transform="matrix(-1 0 0 -1 64 109)" data-original="#00325a"></path></g></g><g><path d="m31.324 11.016c-6.892.324-12.653 5.827-13.267 12.7-.482 5.393 2.104 10.21 6.203 12.934 1.098.73 1.74 1.975 1.74 3.294v5.056c0 1.105.895 2 2 2h1c0 1.657 1.343 3 3 3s3-1.343 3-3h1c1.105 0 2-.895 2-2v-5.058c0-1.322.649-2.567 1.75-3.3 3.765-2.506 6.25-6.779 6.25-11.642 0-7.956-6.637-14.362-14.676-13.984z" fill="#0082aa" data-original="#0082aa"></path></g><g><path d="m43 25c-.552 0-1-.448-1-1v-6c0-.265.105-.52.293-.707l5.707-5.707v-4.586c0-.552.448-1 1-1s1 .448 1 1v5c0 .265-.105.52-.293.707l-5.707 5.707v5.586c0 .552-.448 1-1 1z" fill="#c80a50" data-original="#c80a50" class=""></path></g><g><path d="m53 27h-8c-.552 0-1-.448-1-1s.448-1 1-1h7.586l3.414-3.414v-6.586c0-.552.448-1 1-1s1 .448 1 1v7c0 .265-.105.52-.293.707l-4 4c-.187.188-.442.293-.707.293z" fill="#c80a50" data-original="#c80a50" class=""></path></g><g><path d="m56 42c-.282 0-.562-.119-.76-.349l-5.7-6.651h-9.54c-.552 0-1-.448-1-1s.448-1 1-1h10c.292 0 .569.127.759.349l6 7c.359.419.311 1.051-.108 1.41-.189.162-.42.241-.651.241z" fill="#c80a50" data-original="#c80a50" class=""></path></g><g><path d="m49 6c.551 0 1 .449 1 1s-.449 1-1 1-1-.449-1-1 .449-1 1-1m0-2c-1.657 0-3 1.343-3 3s1.343 3 3 3 3-1.343 3-3-1.343-3-3-3z" fill="#fab400" data-original="#fab400" class=""></path></g><g><path d="m57 14c.551 0 1 .449 1 1s-.449 1-1 1-1-.449-1-1 .449-1 1-1m0-2c-1.657 0-3 1.343-3 3s1.343 3 3 3 3-1.343 3-3-1.343-3-3-3z" fill="#fab400" data-original="#fab400" class=""></path></g><g><path d="m56 40c.551 0 1 .449 1 1s-.449 1-1 1-1-.449-1-1 .449-1 1-1m0-2c-1.657 0-3 1.343-3 3s1.343 3 3 3 3-1.343 3-3-1.343-3-3-3z" fill="#fab400" data-original="#fab400" class=""></path></g><g><path d="m21 25c-.552 0-1-.448-1-1v-5.586l-5.707-5.707c-.188-.187-.293-.442-.293-.707v-5c0-.552.448-1 1-1s1 .448 1 1v4.586l5.707 5.707c.188.187.293.442.293.707v6c0 .552-.448 1-1 1z" fill="#c80a50" data-original="#c80a50" class=""></path></g><g><path d="m19 27h-8c-.265 0-.52-.105-.707-.293l-4-4c-.188-.187-.293-.442-.293-.707v-7c0-.552.448-1 1-1s1 .448 1 1v6.586l3.414 3.414h7.586c.552 0 1 .448 1 1s-.448 1-1 1z" fill="#c80a50" data-original="#c80a50" class=""></path></g><g><path d="m8 42c-.23 0-.462-.079-.65-.241-.419-.359-.468-.991-.108-1.41l6-7c.189-.222.466-.349.758-.349h10c.552 0 1 .448 1 1s-.448 1-1 1h-9.54l-5.701 6.651c-.197.23-.478.349-.759.349z" fill="#c80a50" data-original="#c80a50" class=""></path></g><g><path d="m15 6c.551 0 1 .449 1 1s-.449 1-1 1-1-.449-1-1 .449-1 1-1m0-2c-1.657 0-3 1.343-3 3s1.343 3 3 3 3-1.343 3-3-1.343-3-3-3z" fill="#fab400" data-original="#fab400" class=""></path></g><g><path d="m7 14c.551 0 1 .449 1 1s-.449 1-1 1-1-.449-1-1 .449-1 1-1m0-2c-1.657 0-3 1.343-3 3s1.343 3 3 3 3-1.343 3-3-1.343-3-3-3z" fill="#fab400" data-original="#fab400" class=""></path></g><g><path d="m8 40c.551 0 1 .449 1 1s-.449 1-1 1-1-.449-1-1 .449-1 1-1m0-2c-1.657 0-3 1.343-3 3s1.343 3 3 3 3-1.343 3-3-1.343-3-3-3z" fill="#fab400" data-original="#fab400" class=""></path></g><g><g><path d="m46 24c0-7.956-6.637-14.362-14.676-13.984-6.892.324-12.653 5.827-13.267 12.7-.482 5.393 2.104 10.21 6.203 12.934 1.098.73 1.74 1.975 1.74 3.294v1.056h12v-1.058c0-1.322.649-2.567 1.75-3.3 3.765-2.506 6.25-6.779 6.25-11.642z" fill="#fab400" data-original="#fab400" class=""></path></g><g><circle cx="32" cy="46" fill="#0a5078" r="3" data-original="#0a5078"></circle></g><g><path d="m38 40h-12v4c0 1.105.895 2 2 2h8c1.105 0 2-.895 2-2z" fill="#c80a50" data-original="#c80a50" class=""></path></g><g><g><path d="m26 29c-.256 0-.512-.098-.707-.293l-4-4c-.391-.391-.391-1.023 0-1.414l4-4c.391-.391 1.023-.391 1.414 0s.391 1.023 0 1.414l-3.293 3.293 3.293 3.293c.391.391.391 1.023 0 1.414-.195.195-.451.293-.707.293z" fill="#be7800" data-original="#be7800" class=""></path></g><g><path d="m38 29c-.256 0-.512-.098-.707-.293-.391-.391-.391-1.023 0-1.414l3.293-3.293-3.293-3.293c-.391-.391-.391-1.023 0-1.414s1.023-.391 1.414 0l4 4c.391.391.391 1.023 0 1.414l-4 4c-.195.195-.451.293-.707.293z" fill="#be7800" data-original="#be7800" class=""></path></g><g><path d="m29.999 29c-.15 0-.303-.034-.446-.105-.494-.247-.694-.848-.447-1.342l4-8c.247-.494.847-.696 1.342-.447.494.247.694.848.447 1.342l-4 8c-.176.35-.529.552-.896.552z" fill="#be7800" data-original="#be7800" class=""></path></g></g></g></g></g></g></svg>